<?xml version="1.0" standalone="no"?>
<!DOCTYPE svg PUBLIC "-//W3C//DTD SVG 20010904//EN"
 "http://www.w3.org/TR/2001/REC-SVG-20010904/DTD/svg10.dtd">
<svg version="1.0" xmlns="http://www.w3.org/2000/svg"
 width="260.000000pt" height="260.000000pt" viewBox="0 0 260.000000 260.000000"
 preserveAspectRatio="xMidYMid meet">
<metadata>
Created by potrace 1.14, written by Peter Selinger 2001-2017
</metadata>
<g transform="translate(0.000000,260.000000) scale(0.100000,-0.100000)"
fill="#000000" stroke="none">
<path d="M1082 2476 c-154 -90 -209 -126 -200 -133 7 -6 119 -71 248 -146 129
-74 345 -198 479 -276 134 -78 246 -141 248 -141 2 0 17 -9 32 -21 l28 -21
204 117 c112 65 210 122 217 128 10 8 4 15 -25 32 -21 12 -93 54 -160 93 -68
40 -125 72 -129 72 -3 0 -18 8 -32 19 -15 10 -162 96 -327 191 -370 213 -365
210 -368 209 -1 0 -98 -56 -215 -123z"/>
<path d="M475 2124 c-110 -64 -206 -121 -213 -126 -12 -11 -2 -17 253 -163 22
-12 112 -64 200 -115 88 -51 255 -148 372 -216 l212 -123 123 71 c68 39 165
95 217 125 l94 55 -39 23 c-41 24 -56 33 -139 80 -59 33 -483 278 -712 411
-89 52 -163 94 -165 94 -2 0 -93 -52 -203 -116z"/>
<path d="M150 1222 l0 -611 88 -52 c91 -54 127 -75 202 -117 25 -14 62 -36 82
-49 21 -12 43 -23 50 -23 10 0 13 121 12 600 0 365 -4 604 -10 609 -8 9 -251
152 -354 209 -25 13 -51 29 -57 35 -10 7 -13 -114 -13 -601z"/>
<path d="M2325 1755 c-60 -35 -130 -74 -155 -88 -25 -14 -70 -40 -100 -58
l-55 -34 0 -608 c0 -334 1 -607 2 -607 0 0 97 55 215 123 l213 123 3 607 c1
334 -1 607 -5 607 -5 -1 -57 -29 -118 -65z"/>
<path d="M771 856 l0 -605 187 -107 c103 -59 199 -116 215 -126 15 -11 28 -18
28 -16 1 2 3 275 4 606 l1 604 -31 24 c-18 13 -34 24 -37 24 -3 0 -57 30 -119
66 -63 37 -134 78 -159 92 -25 13 -49 28 -54 33 -33 30 -34 14 -35 -595z"/>
<path d="M1599 1338 l-205 -120 1 -606 c1 -334 3 -608 3 -610 1 -2 14 5 30 16
15 10 111 67 214 126 l188 108 -1 604 c0 458 -3 604 -12 603 -7 0 -105 -55
-218 -121z"/>
</g>
</svg>
