<svg width="126" height="48" viewBox="0 0 126 48" fill="none" xmlns="http://www.w3.org/2000/svg">
<path fill-rule="evenodd" clip-rule="evenodd" d="M10.156 14.829C9.913 14.829 9.853 14.707 9.974 14.526L11.247 12.889C11.367 12.707 11.671 12.586 11.913 12.586H33.55C33.793 12.586 33.853 12.768 33.732 12.95L32.702 14.526C32.581 14.707 32.278 14.889 32.096 14.889L10.156 14.829ZM1.004 20.404C0.761998 20.404 0.700998 20.284 0.821998 20.101L2.095 18.465C2.216 18.283 2.519 18.162 2.762 18.162H30.398C30.64 18.162 30.762 18.344 30.701 18.526L30.216 19.98C30.156 20.223 29.913 20.344 29.671 20.344L1.004 20.404ZM15.67 25.98C15.428 25.98 15.368 25.798 15.489 25.616L16.337 24.101C16.459 23.919 16.701 23.738 16.944 23.738H29.064C29.307 23.738 29.428 23.919 29.428 24.162L29.308 25.616C29.308 25.859 29.065 26.041 28.883 26.041L15.67 25.98ZM78.58 13.738C74.761 14.708 72.155 15.435 68.398 16.404C67.488 16.647 67.428 16.707 66.64 15.798C65.731 14.768 65.064 14.101 63.792 13.495C59.973 11.617 56.276 12.162 52.822 14.405C48.701 17.071 46.58 21.01 46.64 25.919C46.7 30.768 50.034 34.768 54.822 35.435C58.943 35.98 62.398 34.525 65.125 31.435C65.67 30.768 66.155 30.041 66.761 29.192H55.064C53.792 29.192 53.489 28.404 53.913 27.374C54.701 25.495 56.155 22.344 57.003 20.768C57.186 20.404 57.61 19.798 58.519 19.798H80.579C80.459 21.435 80.459 23.071 80.216 24.708C79.549 29.071 77.913 33.071 75.246 36.586C70.882 42.344 65.186 45.919 57.973 46.889C52.034 47.677 46.519 46.525 41.671 42.889C37.186 39.495 34.641 35.01 33.974 29.435C33.186 22.829 35.125 16.889 39.125 11.677C43.428 6.04099 49.125 2.46499 56.095 1.19199C61.792 0.161992 67.246 0.82899 72.155 4.16199C75.367 6.28299 77.67 9.19199 79.185 12.707C79.549 13.253 79.307 13.556 78.579 13.737L78.58 13.738Z" fill="#06B6D4"/>
<path d="M98.64 47.253C93.125 47.131 88.094 45.556 83.852 41.919C80.276 38.829 78.034 34.889 77.307 30.222C76.216 23.374 78.094 17.313 82.216 11.92C86.64 6.10101 91.973 3.07101 99.186 1.79801C105.367 0.708007 111.186 1.31401 116.458 4.88901C121.246 8.16201 124.215 12.586 125.003 18.404C126.033 26.586 123.67 33.253 118.033 38.95C114.033 43.01 109.124 45.556 103.488 46.707C101.852 47.01 100.215 47.071 98.64 47.253ZM113.064 22.768C113.004 21.98 113.004 21.374 112.882 20.768C111.792 14.768 106.276 11.374 100.519 12.708C94.882 13.98 91.246 17.556 89.913 23.253C88.822 27.98 91.125 32.768 95.488 34.707C98.822 36.162 102.155 35.98 105.367 34.344C110.155 31.859 112.761 27.98 113.064 22.768Z" fill="#06B6D4"/>
</svg>
