<svg width="81" height="81" viewBox="0 0 81 81" fill="none" xmlns="http://www.w3.org/2000/svg">
<g clip-path="url(#clip0_921_18)">
<path d="M75.6 33.1C77.4 27.6 76.8 21.5 73.9 16.5C69.5 8.8 60.6 4.9 51.9 6.7C48.1 2.4 42.5 0 36.7 0C27.8 0 20 5.7 17.2 14.1C11.5 15.3 6.6 18.8 3.7 23.9C-0.700003 31.6 0.299997 41.2 6.2 47.8C4.4 53.4 5.1 59.4 8 64.4C12.4 72.1 21.3 76.1 30 74.2C33.9 78.5 39.4 81 45.2 81C54.1 81 61.9 75.3 64.7 66.9C70.4 65.7 75.3 62.2 78.2 57.1C82.6 49.4 81.6 39.7 75.6 33.1ZM45.2 75.7C41.6 75.7 38.2 74.5 35.5 72.2C35.6 72.1 35.9 72 36 71.9L52.1 62.6C52.9 62.1 53.4 61.3 53.4 60.3V37.6L60.2 41.5C60.3 41.5 60.3 41.6 60.3 41.7V60.5C60.4 68.9 53.6 75.7 45.2 75.7ZM12.6 61.8C10.8 58.7 10.2 55.1 10.8 51.6C10.9 51.7 11.1 51.8 11.3 51.9L27.4 61.2C28.2 61.7 29.2 61.7 30 61.2L49.7 49.8V57.7C49.7 57.8 49.7 57.9 49.6 57.9L33.3 67.3C26.1 71.5 16.8 69 12.6 61.8ZM8.4 26.6C10.2 23.5 13 21.2 16.3 19.9V39.1C16.3 40 16.8 40.9 17.6 41.4L37.3 52.8L30.5 56.7C30.4 56.7 30.3 56.8 30.3 56.7L14 47.3C6.6 43.1 4.2 33.8 8.4 26.6ZM64.4 39.6L44.7 28.2L51.5 24.3C51.6 24.3 51.7 24.2 51.7 24.3L68 33.7C75.3 37.9 77.7 47.2 73.5 54.4C71.7 57.5 68.9 59.8 65.6 61V41.9C65.7 41 65.2 40.1 64.4 39.6ZM71.1 29.4C71 29.3 70.8 29.2 70.6 29.1L54.5 19.8C53.7 19.3 52.7 19.3 51.9 19.8L32.2 31.2V23.3C32.2 23.2 32.2 23.1 32.3 23.1L48.6 13.7C55.9 9.5 65.1 12 69.3 19.3C71.1 22.3 71.7 25.9 71.1 29.4ZM28.5 43.4L21.7 39.5C21.6 39.5 21.6 39.4 21.6 39.3V20.5C21.6 12.1 28.4 5.3 36.8 5.3C40.4 5.3 43.8 6.5 46.5 8.8C46.4 8.9 46.2 9 46 9.1L29.9 18.4C29.1 18.9 28.6 19.7 28.6 20.7V43.4H28.5ZM32.2 35.4L41 30.3L49.8 35.4V45.5L41 50.6L32.2 45.5V35.4Z" fill="#10B981"/>
</g>
<defs>
<clipPath id="clip0_921_18">
<rect width="81" height="81" fill="white"/>
</clipPath>
</defs>
</svg>
