<svg width="104" height="104" viewBox="0 0 104 104" fill="none" xmlns="http://www.w3.org/2000/svg">
<g clip-path="url(#clip0_922_22)">
<path d="M51.391 0.247988C47.169 0.267988 43.139 0.626988 39.591 1.25499C29.141 3.10099 27.245 6.96499 27.245 14.092V23.503H51.938V26.64H17.977C10.801 26.64 4.517 30.953 2.551 39.161C0.283004 48.566 0.183004 54.436 2.551 64.257C4.306 71.568 8.498 76.776 15.675 76.776H24.166V65.494C24.166 57.343 31.217 50.154 39.592 50.154H64.257C71.123 50.154 76.603 44.5 76.603 37.606V14.093C76.603 7.39999 70.957 2.37299 64.257 1.25599C60.013 0.549988 55.612 0.228988 51.391 0.247988ZM38.037 7.81699C40.587 7.81699 42.671 9.93399 42.671 12.538C42.671 15.131 40.588 17.228 38.037 17.228C35.477 17.228 33.404 15.131 33.404 12.538C33.403 9.93399 35.477 7.81699 38.037 7.81699Z" fill="#3B82F6"/>
<path d="M79.682 26.64V37.606C79.682 46.106 72.474 53.261 64.256 53.261H39.591C32.835 53.261 27.245 59.044 27.245 65.81V89.325C27.245 96.016 33.063 99.953 39.591 101.872C47.407 104.169 54.903 104.585 64.256 101.872C70.472 100.071 76.602 96.449 76.602 89.325V79.913H51.938V76.775H88.95C96.126 76.775 98.802 71.77 101.298 64.256C103.876 56.521 103.765 49.082 101.298 39.16C99.524 32.015 96.137 26.639 88.95 26.639L79.682 26.64ZM65.809 86.187C68.37 86.187 70.443 88.284 70.443 90.879C70.443 93.481 68.369 95.598 65.809 95.598C63.259 95.598 61.176 93.481 61.176 90.879C61.176 88.284 63.259 86.187 65.809 86.187Z" fill="#EAB308"/>
<path opacity="0.444" d="M85.309 107.597C85.309 111.14 70.493 114.013 52.218 114.013C33.942 114.013 19.126 111.14 19.126 107.597C19.126 104.053 33.941 101.18 52.218 101.18C70.493 101.18 85.309 104.052 85.309 107.597Z" fill="url(#paint0_radial_922_22)"/>
</g>
<defs>
<radialGradient id="paint0_radial_922_22" cx="0" cy="0" r="1" gradientUnits="userSpaceOnUse" gradientTransform="translate(52.0843 107.413) rotate(-90) scale(6.41832 28.2139)">
<stop stop-color="#B8B8B8" stop-opacity="0.498"/>
<stop offset="1" stop-color="#7F7F7F" stop-opacity="0"/>
</radialGradient>
<clipPath id="clip0_922_22">
<rect width="104" height="104" fill="white"/>
</clipPath>
</defs>
</svg>
