<svg width="59" height="59" viewBox="0 0 59 59" fill="none" xmlns="http://www.w3.org/2000/svg">
<path d="M28.992 0.111432C28.885 0.173658 28.4375 0.815744 27.9963 1.53896C26.8901 3.35505 26.8781 3.35597 25.392 1.79247C24.425 0.774721 24.1913 0.588502 23.8802 0.590807C23.6774 0.591729 23.4215 0.660869 23.3109 0.743838C23.2003 0.826807 22.8887 1.48687 22.6177 2.211C21.9972 3.87038 21.9677 3.92338 21.6239 3.99022C21.4119 4.02986 21.0048 3.80262 20.0277 3.10107C19.3063 2.58252 18.5988 2.15846 18.4554 2.15846C17.8603 2.15846 17.6925 2.48388 17.4091 4.18658C17.0495 6.3516 17.0615 6.34423 15.1099 5.45785C14.3217 5.10016 13.575 4.80792 13.4492 4.80792C13.3229 4.80792 13.0841 4.94298 12.9191 5.10846C12.6186 5.40899 12.6181 5.41037 12.7001 7.0656L12.7822 8.72267L12.4687 8.89045C12.1913 9.03887 12 9.02089 10.7707 8.73004C9.16659 8.35115 8.82734 8.36129 8.50284 8.79918L8.265 9.11861L8.58396 10.4848C8.75912 11.2362 8.92736 11.9598 8.95917 12.0921C8.99005 12.2244 8.93612 12.436 8.83932 12.5623C8.67892 12.7688 8.50883 12.7881 7.02323 12.7651C4.5102 12.7254 4.36777 12.9412 5.40534 15.2081C5.73629 15.9271 6.00686 16.5817 6.00686 16.66C6.00686 17.0739 5.67637 17.2242 4.25807 17.456C3.46433 17.5851 2.77477 17.6911 2.72499 17.6911C2.67567 17.6911 2.52678 17.7994 2.3945 17.9317C1.9626 18.3632 2.08521 18.7688 3.06424 20.1507C4.28388 21.8723 4.28203 21.8792 2.26682 22.6494C-0.0245047 23.5261 -0.0710595 23.7419 1.67359 25.3966C3.29839 26.938 3.3007 26.9154 1.4611 28.0719C0.0672219 28.9468 0.0460187 28.968 0.0105265 29.4427C-0.0323407 30.0203 -0.0222001 30.0304 1.64132 31.0468C3.28687 32.0516 3.28687 32.0821 1.67221 33.6096C-0.0646063 35.2524 -0.0111375 35.4921 2.28203 36.3573C4.28572 37.1132 4.28849 37.1224 3.06654 38.8435C2.37421 39.8194 2.15342 40.2264 2.15342 40.5274C2.15342 41.0911 2.44704 41.2349 4.19999 41.5294C5.67775 41.7783 6.00686 41.9245 6.00686 42.3319C6.00686 42.4158 5.73583 43.075 5.40442 43.7963C4.37376 46.0411 4.4913 46.2278 6.93012 46.2278C9.20254 46.2278 9.14216 46.1586 8.65264 48.207C8.28389 49.7512 8.2779 50.0471 8.61208 50.3804C8.86744 50.6366 9.34958 50.6081 10.8568 50.2471C12.0087 49.9724 12.2106 49.9535 12.4775 50.096L12.7817 50.2591L12.7001 51.9157C12.6181 53.5719 12.6186 53.5728 12.9191 53.8738C13.0841 54.0397 13.3265 54.1743 13.4561 54.1743C13.5861 54.1743 14.3332 53.8839 15.1173 53.5272C17.0624 52.644 17.0505 52.6366 17.4095 54.7948C17.6939 56.5053 17.8599 56.8229 18.4669 56.8229C18.6177 56.8229 19.3104 56.4173 20.0065 55.9204C21.2298 55.0478 21.5469 54.9109 21.8728 55.1183C21.9567 55.1713 22.283 55.8881 22.5974 56.7109C23.0597 57.9208 23.2289 58.2366 23.4865 58.3592C23.976 58.5943 24.2793 58.4053 25.4308 57.1515C26.821 55.6369 26.8781 55.6443 28.0129 57.4834C29.2667 59.5143 29.5912 59.5097 30.8763 57.4424C31.9835 55.6613 31.9705 55.6622 33.4672 57.2257C34.4615 58.2628 34.673 58.4288 35.0081 58.4288C35.222 58.4288 35.4778 58.3481 35.5751 58.2499C35.6737 58.1518 35.9991 57.4267 36.2978 56.6385C36.597 55.8503 36.9067 55.1635 36.9869 55.1128C37.3036 54.9118 37.6313 55.0529 38.8528 55.9204C39.5719 56.4311 40.2485 56.8238 40.4094 56.8238C41.0068 56.8238 41.2225 56.3997 41.4705 54.7334C41.6825 53.3128 41.7258 53.1764 42.0052 53.0349C42.2799 52.8957 42.4449 52.9427 43.7337 53.5281C44.5177 53.883 45.2654 54.1743 45.3949 54.1743C45.5249 54.1743 45.771 54.0351 45.9406 53.8646L46.2504 53.5558L46.1656 51.9664C46.084 50.45 46.0918 50.3679 46.3334 50.149C46.5823 49.924 46.6081 49.9249 47.9996 50.243C49.6848 50.6279 49.9992 50.638 50.3159 50.3214C50.6251 50.0125 50.6219 49.9443 50.1988 48.1596C49.724 46.1563 49.6604 46.2282 51.9411 46.2282C53.4963 46.2282 53.6696 46.2056 53.8678 45.9872C54.1988 45.6216 54.12 45.2026 53.4548 43.7843C53.1188 43.0699 52.8464 42.42 52.8487 42.3393C52.8598 41.918 53.1912 41.7737 54.7224 41.5248C55.6595 41.3732 56.3601 41.1976 56.4874 41.0823C56.9128 40.6984 56.7565 40.1982 55.7853 38.8362C54.5675 37.1293 54.5731 37.1132 56.5224 36.3946C58.8566 35.5345 58.9234 35.2478 57.1765 33.5875C55.5586 32.0502 55.5576 32.0585 57.3299 30.9707C59.4724 29.6557 59.4756 29.3593 57.3677 28.0507C55.5549 26.926 55.5563 26.9417 57.1811 25.3989C58.9234 23.7428 58.8764 23.5261 56.5842 22.6494C54.5616 21.8755 54.5551 21.8566 55.7844 20.1696C56.5164 19.1647 56.698 18.8315 56.698 18.4872C56.698 17.8852 56.4279 17.7506 54.6533 17.4639C53.1709 17.2242 52.8446 17.079 52.8446 16.6572C52.8446 16.577 53.1156 15.9317 53.447 15.2223C54.0951 13.8335 54.1864 13.2772 53.8194 12.9453C53.6222 12.7669 53.3585 12.7411 51.9448 12.7646C50.4661 12.7895 50.2771 12.7683 50.072 12.5623C49.848 12.3373 49.8508 12.3055 50.2002 10.8453C50.6293 9.05684 50.6311 9.01306 50.2785 8.68164C49.9204 8.34516 49.6968 8.35069 48.054 8.73742C46.857 9.01951 46.6588 9.03841 46.3868 8.89275L46.078 8.72682L46.1633 7.07574L46.249 5.42558L45.9402 5.11675C45.7701 4.94621 45.5295 4.80792 45.4041 4.80792C45.2797 4.80792 44.5357 5.10292 43.7526 5.46292C42.4444 6.0649 42.3038 6.105 42.0208 5.95704C41.7387 5.80954 41.6917 5.66342 41.4506 4.19211C41.1727 2.48987 41.0003 2.15846 40.396 2.15846C40.2527 2.15846 39.5419 2.58482 38.8169 3.10568C37.6258 3.96118 37.4663 4.04231 37.1695 3.9386C36.9238 3.85286 36.7809 3.66664 36.6067 3.20156C36.4776 2.85954 36.2301 2.2004 36.0563 1.73716C35.7051 0.802377 35.5092 0.593112 34.9832 0.593112C34.6896 0.593112 34.4241 0.804221 33.4714 1.79339C31.9733 3.34906 31.9682 3.3486 30.8671 1.54218C30.4269 0.820354 29.9669 0.175963 29.8447 0.11051C29.5695 -0.03699 29.2455 -0.03699 28.992 0.111432ZM30.3563 5.54957C31.6608 6.4779 30.9676 8.6609 29.3681 8.6609C27.8157 8.6609 27.0339 6.79088 28.142 5.72934C28.768 5.13012 29.6645 5.05683 30.3563 5.54957ZM28.7168 11.3145C29.5718 11.6395 29.9226 11.4445 31.8751 9.56295L33.3418 8.14788L33.9627 8.23085C35.9102 8.48897 39.783 10.1898 42.0084 11.7644C44.0531 13.2117 46.7708 16.159 47.9291 18.1853L48.1767 18.6195L47.0796 21.0919C46.4758 22.4517 45.9817 23.7068 45.9817 23.882C45.9817 24.2867 46.2472 24.9269 46.5025 25.1385C46.6104 25.2284 47.635 25.7216 48.7791 26.2346L50.8579 27.168L50.94 27.6972C51.046 28.3863 51.0598 30.0788 50.9639 30.5596L50.8888 30.9357H49.7019C48.3251 30.9357 48.4315 30.8126 48.3569 32.501C48.3025 33.7253 48.0066 34.402 47.3336 34.8403C46.2379 35.5552 44.4278 35.4257 43.6599 34.5776C43.5424 34.4467 43.3133 33.7917 43.1506 33.121C42.6758 31.1602 42.0383 30.0604 40.7569 28.9887C40.3522 28.6508 40.0217 28.3351 40.0217 28.2872C40.0217 28.2401 40.4665 27.8654 41.0105 27.4561C42.9916 25.9627 44.131 24.224 44.2555 22.5024C44.4947 19.2178 41.8779 16.1567 37.9858 15.1643C37.063 14.9292 36.6689 14.9218 25.2528 14.9218C18.7734 14.9218 13.4713 14.8794 13.4713 14.8278C13.4713 14.7066 14.9117 13.309 15.7598 12.6079C18.0894 10.6821 21.115 9.16701 24.2489 8.35806L25.3321 8.07689L26.8717 9.63809C27.7193 10.4968 28.5495 11.2514 28.7168 11.3145ZM9.32838 21.3597C10.0378 21.8244 10.3286 22.9914 9.90916 23.693C9.26154 24.779 7.62014 24.8246 6.9716 23.775C6.02853 22.2498 7.84508 20.3876 9.32838 21.3597ZM51.1225 21.4197C52.9782 22.5508 51.5401 25.3344 49.5535 24.4554C48.2274 23.8686 48.1845 22.0557 49.482 21.3948C50.0232 21.1182 50.6445 21.1283 51.1225 21.4197ZM14.7965 28.3475V35.2708H8.67523L8.43278 34.2176C7.95525 32.1434 7.75428 29.9972 7.87458 28.2397L7.95847 27.0048L10.0627 26.0613C11.3828 25.4699 12.2318 25.0187 12.3411 24.8513C12.8195 24.1212 12.7743 23.5999 12.1023 22.1166L11.7889 21.4243H14.7956L14.7965 28.3475ZM32.4167 21.7248C33.7272 22.0659 34.4195 22.7596 34.4214 23.7322C34.4223 24.4466 34.0687 24.8937 33.1907 25.2901C32.5693 25.5713 32.4707 25.5782 28.5522 25.6165L24.5485 25.6552V21.5436H28.1355C30.9371 21.5436 31.8747 21.5833 32.4167 21.7248ZM31.0643 31.6598C31.7143 31.8405 32.4822 32.4047 32.8758 32.991C33.2898 33.6073 33.5317 34.4089 34.1052 37.0639C34.5891 39.3086 34.9012 40.0415 35.7737 40.9966C36.8546 42.1794 36.6034 42.1333 42.0029 42.1333C44.5887 42.1333 46.7035 42.1747 46.7035 42.2254C46.7035 42.3163 44.9229 44.4214 44.8459 44.4214C44.8238 44.4214 43.8936 44.2268 42.7791 43.9885C39.6313 43.3165 39.5179 43.3953 38.7957 46.7689L38.331 48.9362L37.9116 49.1427C37.2119 49.4884 34.9371 50.1992 33.7585 50.4426C31.8097 50.8436 29.6894 50.9782 27.8258 50.821C24.6486 50.5514 20.4416 49.3188 20.277 48.6085C20.2425 48.4578 20.0304 47.4824 19.8078 46.4403C19.5842 45.3985 19.3127 44.4103 19.204 44.2444C18.6831 43.4497 18.1355 43.4008 15.7253 43.9337C14.8126 44.1365 14.0161 44.3006 13.9553 44.3006C13.841 44.3006 12.147 42.3421 12.147 42.2102C12.147 42.1688 16.1701 42.1208 21.0874 42.1042L30.0272 42.0738L30.0595 38.8979C30.0826 36.6555 30.0512 35.6728 29.9535 35.5561C29.8456 35.4252 29.269 35.3911 27.1828 35.3911H24.5485V31.5377L27.5893 31.5381C29.2607 31.5391 30.8251 31.5935 31.0643 31.6598ZM17.2888 46.1029C18.7103 46.9694 18.0286 49.2391 16.3471 49.2372C14.6232 49.2372 13.9838 46.9879 15.4529 46.0909C15.9391 45.7945 16.7933 45.8005 17.2888 46.1029ZM43.3225 46.1978C44.0195 46.7085 44.2513 47.771 43.8199 48.4794C42.686 50.3389 39.8503 48.8606 40.7975 46.9035C41.263 45.9424 42.5007 45.5954 43.3225 46.1978Z" fill="#F97316"/>
</svg>